<svg version="1.1" id="Layer_1" xmlns="http://www.w3.org/2000/svg" xmlns:xlink="http://www.w3.org/1999/xlink" x="0px" y="0px"
	 width="100%" viewBox="0 0 136 88" enable-background="new 0 0 136 88" xml:space="preserve">
<path fill="#181718" opacity="1.000000" stroke="none" 
	d="
M73.000000,89.000000 
	C48.666668,89.000000 24.833334,89.000000 1.000000,89.000000 
	C1.000000,59.666668 1.000000,30.333334 1.000000,1.000000 
	C46.333332,1.000000 91.666664,1.000000 137.000000,1.000000 
	C137.000000,30.333334 137.000000,59.666668 137.000000,89.000000 
	C115.833336,89.000000 94.666664,89.000000 73.000000,89.000000 
M77.400894,70.007065 
	C78.352058,68.892906 80.068474,67.816231 80.125198,66.658264 
	C80.407913,60.886120 80.254387,55.092609 80.254387,49.164726 
	C88.168427,49.164726 95.516022,49.164726 103.353416,49.164726 
	C103.353416,56.321724 103.353416,63.069294 103.353416,69.650986 
	C107.103569,69.650986 110.350883,69.650986 113.558121,69.650986 
	C113.558121,52.726067 113.558121,36.162422 113.558121,19.501722 
	C109.988358,19.501722 106.758102,19.501722 103.010475,19.501722 
	C103.010475,26.395382 103.010475,32.969749 103.010475,39.634293 
	C95.249489,39.634293 88.017921,39.634293 80.210052,39.634293 
	C80.210052,32.787189 80.210052,26.219795 80.210052,19.418209 
	C76.553757,19.418209 73.477524,19.418209 70.155716,19.418209 
	C70.155716,36.352097 70.155716,53.033070 70.155716,70.009674 
	C72.482529,70.009674 74.460472,70.009674 77.400894,70.007065 
M24.410421,46.499725 
	C24.410421,54.263485 24.410421,62.027241 24.410421,69.749077 
	C28.277647,69.749077 31.532431,69.749077 35.207359,69.749077 
	C35.207359,64.422279 35.207359,59.350632 35.207359,53.883598 
	C39.435448,53.883598 43.257526,54.150253 47.030010,53.830944 
	C56.365173,53.040817 62.425186,46.377831 62.684303,36.980316 
	C62.933922,27.927277 57.293850,20.669344 48.152462,19.814962 
	C40.475124,19.097416 32.677437,19.667473 24.410444,19.667473 
	C24.410444,28.278780 24.410444,36.889263 24.410421,46.499725 
z"/>
<path fill="#9E4CF7" opacity="1.000000" stroke="none" 
	d="
M76.919655,70.008369 
	C74.460472,70.009674 72.482529,70.009674 70.155716,70.009674 
	C70.155716,53.033070 70.155716,36.352097 70.155716,19.418209 
	C73.477524,19.418209 76.553757,19.418209 80.210052,19.418209 
	C80.210052,26.219795 80.210052,32.787189 80.210052,39.634293 
	C88.017921,39.634293 95.249489,39.634293 103.010475,39.634293 
	C103.010475,32.969749 103.010475,26.395382 103.010475,19.501722 
	C106.758102,19.501722 109.988358,19.501722 113.558121,19.501722 
	C113.558121,36.162422 113.558121,52.726067 113.558121,69.650986 
	C110.350883,69.650986 107.103569,69.650986 103.353416,69.650986 
	C103.353416,63.069294 103.353416,56.321724 103.353416,49.164726 
	C95.516022,49.164726 88.168427,49.164726 80.254387,49.164726 
	C80.254387,55.092609 80.407913,60.886120 80.125198,66.658264 
	C80.068474,67.816231 78.352058,68.892906 76.919655,70.008369 
z"/>
<path fill="#F7F7F7" opacity="1.000000" stroke="none" 
	d="
M24.410433,45.999733 
	C24.410444,36.889263 24.410444,28.278780 24.410444,19.667473 
	C32.677437,19.667473 40.475124,19.097416 48.152462,19.814962 
	C57.293850,20.669344 62.933922,27.927277 62.684303,36.980316 
	C62.425186,46.377831 56.365173,53.040817 47.030010,53.830944 
	C43.257526,54.150253 39.435448,53.883598 35.207359,53.883598 
	C35.207359,59.350632 35.207359,64.422279 35.207359,69.749077 
	C31.532431,69.749077 28.277647,69.749077 24.410421,69.749077 
	C24.410421,62.027241 24.410421,54.263485 24.410433,45.999733 
M40.389904,27.781975 
	C38.767220,27.781975 37.144535,27.781975 35.318588,27.781975 
	C35.318588,33.926937 35.318588,39.645924 35.318588,45.904854 
	C38.535820,45.702171 41.512070,45.771297 44.392570,45.279545 
	C50.309940,44.269356 53.049191,39.628777 51.421040,33.922138 
	C49.939381,28.728960 45.904259,27.808571 40.389904,27.781975 
z"/>
<path fill="#1D1D1D" opacity="1.000000" stroke="none" 
	d="
M40.848068,27.783653 
	C45.904259,27.808571 49.939381,28.728960 51.421040,33.922138 
	C53.049191,39.628777 50.309940,44.269356 44.392570,45.279545 
	C41.512070,45.771297 38.535820,45.702171 35.318588,45.904854 
	C35.318588,39.645924 35.318588,33.926937 35.318588,27.781975 
	C37.144535,27.781975 38.767220,27.781975 40.848068,27.783653 
z"/>
</svg>